<svg width="30" height="30" viewBox="0 0 30 30" fill="none" xmlns="http://www.w3.org/2000/svg">
<path d="M15 2.5C11.725 2.5 9.0625 5.1625 9.0625 8.4375C9.0625 11.65 11.575 14.25 14.85 14.3625C14.95 14.35 15.05 14.35 15.125 14.3625C15.15 14.3625 15.1625 14.3625 15.1875 14.3625C15.2 14.3625 15.2 14.3625 15.2125 14.3625C18.4125 14.25 20.925 11.65 20.9375 8.4375C20.9375 5.1625 18.275 2.5 15 2.5Z" fill="white"/>
<path d="M21.3511 17.6861C17.8636 15.3611 12.1762 15.3611 8.66367 17.6861C7.07617 18.7486 6.20117 20.1861 6.20117 21.7236C6.20117 23.2611 7.07617 24.6861 8.65117 25.7361C10.4012 26.9111 12.7011 27.4986 15.0011 27.4986C17.3011 27.4986 19.6011 26.9111 21.3511 25.7361C22.9261 24.6736 23.8011 23.2486 23.8011 21.6986C23.7886 20.1611 22.9261 18.7361 21.3511 17.6861ZM17.5011 22.6611H15.9386V24.2236C15.9386 24.7361 15.5136 25.1611 15.0011 25.1611C14.4886 25.1611 14.0636 24.7361 14.0636 24.2236V22.6611H12.5011C11.9887 22.6611 11.5637 22.2361 11.5637 21.7236C11.5637 21.2111 11.9887 20.7861 12.5011 20.7861H14.0636V19.2236C14.0636 18.7111 14.4886 18.2861 15.0011 18.2861C15.5136 18.2861 15.9386 18.7111 15.9386 19.2236V20.7861H17.5011C18.0136 20.7861 18.4386 21.2111 18.4386 21.7236C18.4386 22.2361 18.0136 22.6611 17.5011 22.6611Z" fill="white"/>
</svg>
