<svg width="30" height="30" viewBox="0 0 30 30" fill="none" xmlns="http://www.w3.org/2000/svg">
<path d="M11.4501 13.5875C11.3251 13.575 11.1751 13.575 11.0376 13.5875C8.06257 13.4875 5.70007 11.05 5.70007 8.05C5.70007 4.9875 8.17507 2.5 11.2501 2.5C14.3126 2.5 16.8001 4.9875 16.8001 8.05C16.7876 11.05 14.4251 13.4875 11.4501 13.5875Z" fill="white" stroke="white" stroke-width="2" stroke-linecap="round" stroke-linejoin="round"/>
<path d="M20.5125 5C22.9375 5 24.8875 6.9625 24.8875 9.375C24.8875 11.7375 23.0125 13.6625 20.675 13.75C20.575 13.7375 20.4625 13.7375 20.35 13.75" stroke="white" stroke-width="2" stroke-linecap="round" stroke-linejoin="round"/>
<path d="M5.1999 18.2C2.1749 20.225 2.1749 23.525 5.1999 25.5375C8.6374 27.8375 14.2749 27.8375 17.7124 25.5375C20.7374 23.5125 20.7374 20.2125 17.7124 18.2C14.2874 15.9125 8.6499 15.9125 5.1999 18.2Z" fill="white" stroke="white" stroke-width="2" stroke-linecap="round" stroke-linejoin="round"/>
<path d="M22.9252 25C23.8252 24.8125 24.6752 24.45 25.3752 23.9125C27.3252 22.45 27.3252 20.0375 25.3752 18.575C24.6877 18.05 23.8502 17.7 22.9627 17.5" stroke="white" stroke-width="2" stroke-linecap="round" stroke-linejoin="round"/>
</svg>
