<svg width="26" height="26" viewBox="0 0 26 26" fill="none" xmlns="http://www.w3.org/2000/svg">
<path d="M23.0503 6.52706L15.8503 1.48956C13.8878 0.114562 10.8753 0.189562 8.98779 1.65206L2.72529 6.53956C1.47529 7.51456 0.487793 9.51456 0.487793 11.0895V19.7145C0.487793 22.902 3.07529 25.502 6.26279 25.502H19.7378C22.9253 25.502 25.5128 22.9145 25.5128 19.727V11.252C25.5128 9.56456 24.4253 7.48956 23.0503 6.52706ZM13.9378 20.502C13.9378 21.0145 13.5128 21.4395 13.0003 21.4395C12.4878 21.4395 12.0628 21.0145 12.0628 20.502V16.752C12.0628 16.2395 12.4878 15.8145 13.0003 15.8145C13.5128 15.8145 13.9378 16.2395 13.9378 16.752V20.502Z" fill="white"/>
</svg>
